<svg width="45" height="44" viewBox="0 0 45 44" fill="none" xmlns="http://www.w3.org/2000/svg">
<path fill-rule="evenodd" clip-rule="evenodd" d="M14.0625 31.625C14.0625 31.2603 14.2107 30.9106 14.4744 30.6527C14.7381 30.3949 15.0958 30.25 15.4688 30.25H40.7812C41.1542 30.25 41.5119 30.3949 41.7756 30.6527C42.0393 30.9106 42.1875 31.2603 42.1875 31.625C42.1875 31.9897 42.0393 32.3394 41.7756 32.5973C41.5119 32.8551 41.1542 33 40.7812 33H15.4688C15.0958 33 14.7381 32.8551 14.4744 32.5973C14.2107 32.3394 14.0625 31.9897 14.0625 31.625ZM14.0625 20.625C14.0625 20.2603 14.2107 19.9106 14.4744 19.6527C14.7381 19.3949 15.0958 19.25 15.4688 19.25H40.7812C41.1542 19.25 41.5119 19.3949 41.7756 19.6527C42.0393 19.9106 42.1875 20.2603 42.1875 20.625C42.1875 20.9897 42.0393 21.3394 41.7756 21.5973C41.5119 21.8551 41.1542 22 40.7812 22H15.4688C15.0958 22 14.7381 21.8551 14.4744 21.5973C14.2107 21.3394 14.0625 20.9897 14.0625 20.625ZM14.0625 9.625C14.0625 9.26033 14.2107 8.91059 14.4744 8.65273C14.7381 8.39487 15.0958 8.25 15.4688 8.25H40.7812C41.1542 8.25 41.5119 8.39487 41.7756 8.65273C42.0393 8.91059 42.1875 9.26033 42.1875 9.625C42.1875 9.98967 42.0393 10.3394 41.7756 10.5973C41.5119 10.8551 41.1542 11 40.7812 11H15.4688C15.0958 11 14.7381 10.8551 14.4744 10.5973C14.2107 10.3394 14.0625 9.98967 14.0625 9.625Z" fill="#EFF2F4"/>
<path d="M6.30571 6.03337C6.35355 5.88173 6.44983 5.74907 6.58042 5.65484C6.711 5.56061 6.86903 5.50977 7.03133 5.50977C7.19363 5.50977 7.35166 5.56061 7.48225 5.65484C7.61283 5.74907 7.70911 5.88173 7.75696 6.03337L8.21258 7.49087C8.31102 7.80712 8.60633 8.02437 8.93821 8.02437H10.4879C11.2163 8.02437 11.5285 8.94012 10.9491 9.38012L9.63289 10.3784C9.50851 10.4735 9.41662 10.6033 9.36941 10.7506C9.3222 10.898 9.32189 11.0559 9.36852 11.2034L9.85508 12.7681C10.0745 13.4721 9.25602 14.0386 8.66539 13.5931L7.49258 12.7021C7.36073 12.6018 7.19842 12.5473 7.03133 12.5473C6.86425 12.5473 6.70193 12.6018 6.57008 12.7021L5.39727 13.5904C4.80664 14.0386 3.99102 13.4721 4.20758 12.7681L4.69414 11.2006C4.74015 11.0535 4.73952 10.8962 4.69233 10.7494C4.64514 10.6026 4.5536 10.4733 4.42977 10.3784L3.11352 9.38012C2.53414 8.94012 2.84633 8.02437 3.57477 8.02437H5.12164C5.2856 8.02388 5.44502 7.97171 5.57624 7.8756C5.70747 7.77949 5.8035 7.64457 5.85008 7.49087L6.30571 6.03337ZM6.30571 17.0334C6.35355 16.8817 6.44983 16.7491 6.58042 16.6548C6.711 16.5606 6.86903 16.5098 7.03133 16.5098C7.19363 16.5098 7.35166 16.5606 7.48225 16.6548C7.61283 16.7491 7.70911 16.8817 7.75696 17.0334L8.21258 18.4909C8.31102 18.8071 8.60633 19.0244 8.93821 19.0244H10.4879C11.2163 19.0244 11.5285 19.9401 10.9491 20.3801L9.63289 21.3784C9.50851 21.4735 9.41662 21.6033 9.36941 21.7506C9.3222 21.898 9.32189 22.0559 9.36852 22.2034L9.85508 23.7681C10.0745 24.4694 9.25602 25.0386 8.66539 24.5931L7.49258 23.7021C7.36073 23.6018 7.19842 23.5473 7.03133 23.5473C6.86425 23.5473 6.70193 23.6018 6.57008 23.7021L5.39727 24.5904C4.80664 25.0386 3.99102 24.4721 4.20758 23.7681L4.69414 22.2006C4.74015 22.0535 4.73952 21.8962 4.69233 21.7494C4.64514 21.6026 4.5536 21.4733 4.42977 21.3784L3.11352 20.3801C2.53414 19.9401 2.84633 19.0244 3.57477 19.0244H5.12164C5.2856 19.0239 5.44502 18.9717 5.57624 18.8756C5.70747 18.7795 5.8035 18.6446 5.85008 18.4909L6.30571 17.0334ZM6.30571 28.0334C6.35355 27.8817 6.44983 27.7491 6.58042 27.6548C6.711 27.5606 6.86903 27.5098 7.03133 27.5098C7.19363 27.5098 7.35166 27.5606 7.48225 27.6548C7.61283 27.7491 7.70911 27.8817 7.75696 28.0334L8.21258 29.4909C8.31102 29.8071 8.60633 30.0244 8.93821 30.0244H10.4879C11.2163 30.0244 11.5285 30.9401 10.9491 31.3801L9.63289 32.3784C9.50851 32.4735 9.41662 32.6033 9.36941 32.7506C9.3222 32.898 9.32189 33.0559 9.36852 33.2034L9.85508 34.7681C10.0745 35.4694 9.25602 36.0386 8.66539 35.5931L7.49258 34.7021C7.36073 34.6018 7.19842 34.5473 7.03133 34.5473C6.86425 34.5473 6.70193 34.6018 6.57008 34.7021L5.39727 35.5904C4.80664 36.0386 3.99102 35.4721 4.20758 34.7681L4.69414 33.2006C4.74015 33.0535 4.73952 32.8962 4.69233 32.7494C4.64514 32.6026 4.5536 32.4733 4.42977 32.3784L3.11352 31.3801C2.53414 30.9401 2.84633 30.0244 3.57477 30.0244H5.12164C5.2856 30.0239 5.44502 29.9717 5.57624 29.8756C5.70747 29.7795 5.8035 29.6446 5.85008 29.4909L6.30571 28.0334Z" fill="#EFF2F4"/>
</svg>
