<svg width="28" height="26" viewBox="0 0 28 26" fill="none" xmlns="http://www.w3.org/2000/svg">
<path fill-rule="evenodd" clip-rule="evenodd" d="M8.75 18.6875C8.75 18.472 8.84219 18.2653 9.00628 18.113C9.17038 17.9606 9.39294 17.875 9.625 17.875H25.375C25.6071 17.875 25.8296 17.9606 25.9937 18.113C26.1578 18.2653 26.25 18.472 26.25 18.6875C26.25 18.903 26.1578 19.1097 25.9937 19.262C25.8296 19.4144 25.6071 19.5 25.375 19.5H9.625C9.39294 19.5 9.17038 19.4144 9.00628 19.262C8.84219 19.1097 8.75 18.903 8.75 18.6875ZM8.75 12.1875C8.75 11.972 8.84219 11.7653 9.00628 11.613C9.17038 11.4606 9.39294 11.375 9.625 11.375H25.375C25.6071 11.375 25.8296 11.4606 25.9937 11.613C26.1578 11.7653 26.25 11.972 26.25 12.1875C26.25 12.403 26.1578 12.6097 25.9937 12.762C25.8296 12.9144 25.6071 13 25.375 13H9.625C9.39294 13 9.17038 12.9144 9.00628 12.762C8.84219 12.6097 8.75 12.403 8.75 12.1875ZM8.75 5.6875C8.75 5.47201 8.84219 5.26535 9.00628 5.11298C9.17038 4.9606 9.39294 4.875 9.625 4.875H25.375C25.6071 4.875 25.8296 4.9606 25.9937 5.11298C26.1578 5.26535 26.25 5.47201 26.25 5.6875C26.25 5.90299 26.1578 6.10965 25.9937 6.26202C25.8296 6.4144 25.6071 6.5 25.375 6.5H9.625C9.39294 6.5 9.17038 6.4144 9.00628 6.26202C8.84219 6.10965 8.75 5.90299 8.75 5.6875Z" fill="#1C8EFF"/>
<path d="M3.92346 3.56526C3.95323 3.47566 4.01313 3.39727 4.09439 3.34158C4.17564 3.2859 4.27397 3.25586 4.37496 3.25586C4.47594 3.25586 4.57427 3.2859 4.65553 3.34158C4.73678 3.39727 4.79669 3.47566 4.82646 3.56526L5.10996 4.42651C5.17121 4.61339 5.35496 4.74176 5.56146 4.74176H6.52571C6.97896 4.74176 7.17321 5.28289 6.81271 5.54289L5.99371 6.13276C5.91631 6.18897 5.85914 6.26568 5.82976 6.35274C5.80039 6.4398 5.80019 6.5331 5.82921 6.62026L6.13196 7.54489C6.26846 7.96089 5.75921 8.29564 5.39171 8.03239L4.66196 7.50589C4.57992 7.44659 4.47892 7.41439 4.37496 7.41439C4.27099 7.41439 4.17 7.44659 4.08796 7.50589L3.35821 8.03076C2.99071 8.29564 2.48321 7.96089 2.61796 7.54489L2.92071 6.61864C2.94934 6.5317 2.94894 6.43875 2.91958 6.35202C2.89022 6.26529 2.83326 6.18885 2.75621 6.13276L1.93721 5.54289C1.57671 5.28289 1.77096 4.74176 2.22421 4.74176H3.18671C3.28872 4.74147 3.38792 4.71064 3.46957 4.65385C3.55122 4.59706 3.61097 4.51734 3.63996 4.42651L3.92346 3.56526ZM3.92346 10.0653C3.95323 9.97566 4.01313 9.89727 4.09439 9.84159C4.17564 9.7859 4.27397 9.75586 4.37496 9.75586C4.47594 9.75586 4.57427 9.7859 4.65553 9.84159C4.73678 9.89727 4.79669 9.97566 4.82646 10.0653L5.10996 10.9265C5.17121 11.1134 5.35496 11.2418 5.56146 11.2418H6.52571C6.97896 11.2418 7.17321 11.7829 6.81271 12.0429L5.99371 12.6328C5.91631 12.689 5.85914 12.7657 5.82976 12.8527C5.80039 12.9398 5.80019 13.0331 5.82921 13.1203L6.13196 14.0449C6.26846 14.4593 5.75921 14.7956 5.39171 14.5324L4.66196 14.0059C4.57992 13.9466 4.47892 13.9144 4.37496 13.9144C4.27099 13.9144 4.17 13.9466 4.08796 14.0059L3.35821 14.5308C2.99071 14.7956 2.48321 14.4609 2.61796 14.0449L2.92071 13.1186C2.94934 13.0317 2.94894 12.9387 2.91958 12.852C2.89022 12.7653 2.83326 12.6888 2.75621 12.6328L1.93721 12.0429C1.57671 11.7829 1.77096 11.2418 2.22421 11.2418H3.18671C3.28872 11.2415 3.38792 11.2106 3.46957 11.1539C3.55122 11.0971 3.61097 11.0173 3.63996 10.9265L3.92346 10.0653ZM3.92346 16.5653C3.95323 16.4757 4.01313 16.3973 4.09439 16.3416C4.17564 16.2859 4.27397 16.2559 4.37496 16.2559C4.47594 16.2559 4.57427 16.2859 4.65553 16.3416C4.73678 16.3973 4.79669 16.4757 4.82646 16.5653L5.10996 17.4265C5.17121 17.6134 5.35496 17.7418 5.56146 17.7418H6.52571C6.97896 17.7418 7.17321 18.2829 6.81271 18.5429L5.99371 19.1328C5.91631 19.189 5.85914 19.2657 5.82976 19.3527C5.80039 19.4398 5.80019 19.5331 5.82921 19.6203L6.13196 20.5449C6.26846 20.9593 5.75921 21.2956 5.39171 21.0324L4.66196 20.5059C4.57992 20.4466 4.47892 20.4144 4.37496 20.4144C4.27099 20.4144 4.17 20.4466 4.08796 20.5059L3.35821 21.0308C2.99071 21.2956 2.48321 20.9609 2.61796 20.5449L2.92071 19.6186C2.94934 19.5317 2.94894 19.4387 2.91958 19.352C2.89022 19.2653 2.83326 19.1889 2.75621 19.1328L1.93721 18.5429C1.57671 18.2829 1.77096 17.7418 2.22421 17.7418H3.18671C3.28872 17.7415 3.38792 17.7106 3.46957 17.6539C3.55122 17.5971 3.61097 17.5173 3.63996 17.4265L3.92346 16.5653Z" fill="#1C8EFF"/>
</svg>
