<svg width="69" height="67" viewBox="0 0 69 67" fill="none" xmlns="http://www.w3.org/2000/svg">
<g clip-path="url(#clip0_3394_21971)">
<path d="M55.115 26.383C54.86 26.0641 54.4915 25.7991 54.0469 25.6147C53.6023 25.4303 53.0974 25.3331 52.5833 25.333H11.75C11.2392 25.3331 10.7374 25.429 10.2949 25.6112C9.8523 25.7933 9.48445 26.0552 9.22812 26.3708C8.97179 26.6864 8.83597 27.0445 8.83425 27.4093C8.83252 27.7741 8.96495 28.1329 9.21829 28.4497L20.0595 41.9997L9.21829 55.5497C8.96495 55.8665 8.83252 56.2252 8.83425 56.59C8.83597 56.9549 8.97179 57.313 9.22812 57.6285C9.48445 57.9441 9.8523 58.206 10.2949 58.3882C10.7374 58.5703 11.2392 58.6662 11.75 58.6663H52.5833C53.0974 58.6662 53.6023 58.569 54.0469 58.3846C54.4915 58.2003 54.86 57.9352 55.115 57.6163L66.7816 43.033C67.0339 42.7184 67.1666 42.3622 67.1666 41.9997C67.1666 41.6371 67.0339 41.2809 66.7816 40.9663L55.115 26.383ZM50.8916 54.4997H16.7783L25.9512 43.033C26.2034 42.7184 26.3362 42.3622 26.3362 41.9997C26.3362 41.6371 26.2034 41.2809 25.9512 40.9663L16.7783 29.4997H50.8916L60.8929 41.9997L50.8916 54.4997Z" fill="#F7F8F9"/>
</g>
<defs>
<clipPath id="clip0_3394_21971">
<rect width="69" height="67" fill="white"/>
</clipPath>
</defs>
</svg>
