<svg width="13" height="14" viewBox="0 0 13 14" fill="none" xmlns="http://www.w3.org/2000/svg">
<path d="M10.875 12.667H2.125V5.33366H10.875V12.667ZM10.875 2.00033H10.25V0.666992H9V2.00033H4V0.666992H2.75V2.00033H2.125C1.79348 2.00033 1.47554 2.1408 1.24112 2.39085C1.0067 2.6409 0.875 2.98004 0.875 3.33366V12.667C0.875 13.0206 1.0067 13.3598 1.24112 13.6098C1.47554 13.8598 1.79348 14.0003 2.125 14.0003H10.875C11.2065 14.0003 11.5245 13.8598 11.7589 13.6098C11.9933 13.3598 12.125 13.0206 12.125 12.667V3.33366C12.125 2.98004 11.9933 2.6409 11.7589 2.39085C11.5245 2.1408 11.2065 2.00033 10.875 2.00033ZM9.33125 7.37366L8.66875 6.66699L5.61875 9.92033L4.29375 8.50699L3.63125 9.21366L5.61875 11.3337L9.33125 7.37366Z" fill="black"/>
</svg>
