<svg width="18" height="17" viewBox="0 0 18 17" fill="none" xmlns="http://www.w3.org/2000/svg">
<path d="M17.8971 0.580622C17.8207 0.405618 17.7061 0.259044 17.5656 0.15672C17.425 0.0543957 17.2639 0.000206131 17.0997 0H0.898159C0.734203 0.000815048 0.573533 0.0554046 0.433428 0.157898C0.293323 0.260391 0.179085 0.40691 0.102997 0.581698C0.0269091 0.756486 -0.0081486 0.95293 0.00159387 1.1499C0.0113363 1.34688 0.0655103 1.53693 0.15829 1.69962L8.25904 15.7819C8.34162 15.9262 8.45211 16.0442 8.58099 16.1258C8.70988 16.2073 8.8533 16.2499 8.99891 16.2499C9.14452 16.2499 9.28794 16.2073 9.41683 16.1258C9.54572 16.0442 9.65621 15.9262 9.73878 15.7819L17.8395 1.69962C17.9332 1.53726 17.9881 1.3471 17.9983 1.14981C18.0084 0.952521 17.9735 0.755655 17.8971 0.580622ZM8.99891 13.2622L2.61552 2.1665H15.3823L8.99891 13.2622Z" fill="#9F9FA6"/>
</svg>
