<svg width="5" height="21" viewBox="0 0 5 21" fill="none" xmlns="http://www.w3.org/2000/svg">
<path d="M2.5 9C1.67157 9 0.999999 9.67157 0.999999 10.5C0.999999 11.3284 1.67157 12 2.5 12C3.32843 12 4 11.3284 4 10.5C4 9.67157 3.32843 9 2.5 9Z" fill="black" stroke="black" stroke-linecap="round" stroke-linejoin="round"/>
<path d="M2.5 17C1.67157 17 0.999999 17.6716 0.999999 18.5C0.999999 19.3284 1.67157 20 2.5 20C3.32843 20 4 19.3284 4 18.5C4 17.6716 3.32843 17 2.5 17Z" fill="black" stroke="black" stroke-linecap="round" stroke-linejoin="round"/>
<path d="M2.5 0.999999C1.67157 0.999999 0.999999 1.67157 0.999999 2.5C0.999999 3.32843 1.67157 4 2.5 4C3.32843 4 4 3.32843 4 2.5C4 1.67157 3.32843 0.999999 2.5 0.999999Z" fill="black" stroke="black" stroke-linecap="round" stroke-linejoin="round"/>
</svg>
