<svg width="25" height="34" viewBox="0 0 25 34" fill="none" xmlns="http://www.w3.org/2000/svg">
<path d="M6.84663 17.2464L2.05145 17.2464L2.05124 17.2464M6.84663 17.2464L1.08968 15.6027C1.0215 15.7548 0.993878 15.9208 1.00929 16.0857C1.0247 16.2505 1.08267 16.4092 1.17799 16.5473C1.2733 16.6855 1.40299 16.7988 1.55541 16.8772C1.70782 16.9556 1.8782 16.9965 2.05124 16.9964V17.2464M6.84663 17.2464L0.85088 31.5242C0.850859 31.5242 0.850838 31.5243 0.850818 31.5243C0.58696 32.1517 0.870956 32.7324 1.3257 33.029C1.77882 33.3245 2.43211 33.361 2.93574 32.9064L2.93579 32.9064L13.4332 23.4266L23.7924 14.9504C23.7924 14.9504 23.7924 14.9504 23.7924 14.9504C23.9941 14.7854 24.1396 14.5639 24.2075 14.3147C24.2754 14.0653 24.2617 13.802 24.1685 13.5607C24.0754 13.3195 23.908 13.1134 23.6909 12.9687C23.4739 12.8241 23.217 12.7473 22.9547 12.7473H15.3702L19.9637 2.49591C20.0494 2.30472 20.0844 2.09556 20.0649 1.88746C20.0455 1.67937 19.9723 1.47997 19.8531 1.3071C19.7339 1.1343 19.5725 0.993668 19.3842 0.896862C19.196 0.800079 18.9863 0.74982 18.7738 0.75M6.84663 17.2464L18.774 1M2.05124 17.2464C1.83883 17.2465 1.62921 17.1963 1.44108 17.0995C1.25283 17.0027 1.09143 16.8621 0.972211 16.6893C0.852938 16.5164 0.779829 16.317 0.760376 16.1089C0.740922 15.9008 0.775856 15.6917 0.861542 15.5005M2.05124 17.2464L0.861542 15.5005M0.861542 15.5005L7.13258 1.50365L7.13259 1.50363C7.23392 1.27753 7.4016 1.08664 7.61316 0.953338C7.82458 0.820124 8.07116 0.749807 8.32239 0.75M0.861542 15.5005L18.774 1M8.32239 0.75C8.32243 0.75 8.32247 0.75 8.32251 0.75L8.32229 1V0.75H8.32239ZM8.32239 0.75L18.7738 0.75M18.7738 0.75L18.774 1M18.7738 0.75L18.774 0.75V1M19.4242 15.2468H13.4H13.3998H19.4242ZM19.4242 15.2468L11.7134 21.5579L11.7132 21.5576L11.7042 21.5658L5.4605 27.203L9.97005 16.4653L9.97013 16.4651C10.05 16.2744 10.08 16.0673 10.0571 15.8622C10.0341 15.6572 9.95898 15.4615 9.83925 15.2921C9.71956 15.1229 9.55913 14.9854 9.3728 14.8907C9.1865 14.7961 8.97946 14.7469 8.76968 14.7468H8.76963H4.02172L9.17403 3.24955H16.8036L12.2101 13.5009M19.4242 15.2468L12.2101 13.5009M12.2101 13.5009L12.21 13.5009L12.4382 13.6032L12.2101 13.5009Z" fill="#1C8EFF" stroke="#1C8EFF" stroke-width="0.5"/>
</svg>
