<svg width="29" height="28" viewBox="0 0 29 28" fill="none" xmlns="http://www.w3.org/2000/svg">
<path d="M27.1911 13.5733C27.1782 16.7631 26.0398 19.8469 23.9749 22.2856C21.91 24.7243 19.0501 26.3627 15.895 26.9145C8.64236 28.1951 1.60746 23.3364 0.245647 16.105C-1.14997 8.69841 3.52914 1.74298 11.0306 0.268407C14.5575 -0.423768 17.9154 0.223966 20.9703 2.19815C21.4964 2.5375 21.7818 2.99267 21.6641 3.60539C21.5492 4.17906 21.1637 4.60461 20.5633 4.6248C20.1677 4.62242 19.7806 4.50951 19.4462 4.29891C17.6219 3.16639 15.6272 2.54828 13.4959 2.61292C9.19817 2.74758 5.88763 4.69079 3.86452 8.48833C0.340312 15.1017 4.33109 23.0146 11.7812 24.3356C17.9465 25.4291 23.9306 20.9246 24.4553 14.7489C24.5432 13.7133 24.4621 12.6535 24.362 11.6139C24.2809 10.7871 24.6582 10.1164 25.4561 9.96829C26.1674 9.83363 26.8449 10.3575 26.9504 11.1695C27.0559 11.9815 27.114 12.7707 27.1911 13.5733Z" fill="#1C8EFF"/>
<path d="M13.0498 14.7963C13.3202 14.5269 13.4717 14.3923 13.6434 14.224C17.7789 10.0942 21.9171 5.96857 26.058 1.84693C26.5813 1.32578 27.1399 0.968921 27.9161 1.24902C28.9452 1.6207 29.3212 2.76265 28.6951 3.65548C28.5737 3.81728 28.4379 3.96782 28.2894 4.10526C23.6914 8.69103 19.0898 13.2755 14.4846 17.8585C13.469 18.8699 12.6643 18.8739 11.6447 17.8585C10.1616 16.3853 8.68122 14.9094 7.20356 13.4308C6.75593 12.981 6.4909 12.4585 6.68563 11.7933C6.75968 11.4977 6.91945 11.2304 7.14502 11.0247C7.3706 10.819 7.65199 10.684 7.95412 10.6365C8.57214 10.5099 9.04277 10.7833 9.45659 11.1967C10.6372 12.379 11.6947 13.4389 13.0498 14.7963Z" fill="#1C8EFF"/>
</svg>
