<svg width="32" height="23" viewBox="0 0 32 23" fill="none" xmlns="http://www.w3.org/2000/svg">
<path d="M22.0782 0.669245C22.2271 0.54526 22.4191 0.485464 22.6121 0.503005C22.8049 0.52054 22.983 0.61393 23.107 0.762653C23.1071 0.76268 23.1071 0.762708 23.1071 0.762735C23.1071 0.762751 23.1071 0.762767 23.1072 0.762783L31.307 10.6036C31.4234 10.7524 31.4776 10.9405 31.4583 11.1286C31.4387 11.3184 31.3457 11.493 31.1992 11.6151C31.0526 11.7372 30.8641 11.7972 30.6739 11.7822C30.4855 11.7674 30.3102 11.6801 30.1848 11.5388L21.9849 1.69798C21.9849 1.69795 21.9849 1.69792 21.9848 1.69789C21.8609 1.54903 21.8011 1.35706 21.8187 1.16416C21.8362 0.971309 21.9296 0.793309 22.0782 0.669245Z" fill="#1C8EFF" stroke="#1C8EFF"/>
<path d="M30.1891 10.6086L30.1892 10.6087L30.1967 10.5993C30.2573 10.523 30.3325 10.4595 30.4179 10.4127C30.5034 10.3659 30.5973 10.3366 30.6943 10.3266C30.7912 10.3166 30.8891 10.3261 30.9823 10.3545C31.0755 10.383 31.1621 10.4297 31.237 10.4921C31.3118 10.5545 31.3735 10.6312 31.4182 10.7178C31.463 10.8043 31.49 10.899 31.4977 10.9961C31.5053 11.0932 31.4935 11.1909 31.4628 11.2834C31.4322 11.3759 31.3833 11.4613 31.3192 11.5347L31.319 11.5346L31.3113 11.5438L23.1072 21.3898C23.1071 21.3899 23.1071 21.3899 23.1071 21.3899C22.983 21.5387 22.805 21.6321 22.6121 21.6496C22.4192 21.6671 22.2273 21.6074 22.0785 21.4836C21.9297 21.3595 21.8362 21.1814 21.8187 20.9885C21.8011 20.7955 21.8609 20.6035 21.9849 20.4546L30.1891 10.6086Z" fill="#1C8EFF" stroke="#1C8EFF"/>
<path d="M1.93411 10.3462H30.8865C31.0321 10.3462 31.1833 10.4097 31.3031 10.5421C31.4244 10.6762 31.5 10.8679 31.5 11.077C31.5 11.286 31.4244 11.4777 31.3031 11.6118C31.1833 11.7442 31.0321 11.8077 30.8865 11.8077H1.93411C1.78845 11.8077 1.6373 11.7442 1.51748 11.6118C1.39616 11.4777 1.32056 11.286 1.32056 11.077C1.32056 10.8679 1.39616 10.6762 1.51748 10.5421C1.6373 10.4097 1.78845 10.3462 1.93411 10.3462Z" fill="#1C8EFF" stroke="#1C8EFF"/>
<path d="M9.88365 21.4836C9.73481 21.6074 9.5429 21.6672 9.35005 21.6496C9.1571 21.6321 8.97902 21.5387 8.85495 21.3899L0.655087 11.5491C0.538731 11.4002 0.484479 11.2121 0.503851 11.024C0.523402 10.8343 0.616388 10.6597 0.762946 10.5375C0.909501 10.4154 1.09801 10.3554 1.28819 10.3704C1.47664 10.3853 1.65193 10.4726 1.77732 10.6138L9.97719 20.4547C9.97721 20.4547 9.97724 20.4547 9.97727 20.4548C10.1012 20.6036 10.161 20.7956 10.1434 20.9885C10.1259 21.1814 10.0324 21.3595 9.88365 21.4836Z" fill="#1C8EFF" stroke="#1C8EFF"/>
<path d="M9.88365 0.669061C10.0325 0.793132 10.1259 0.971213 10.1434 1.16415C10.161 1.3571 10.1012 1.54911 9.97719 1.69798L1.77731 11.5388C1.65192 11.6801 1.47664 11.7674 1.28819 11.7822C1.09801 11.7972 0.909502 11.7372 0.762946 11.6151L0.442854 11.9992L0.762945 11.6151C0.616389 11.493 0.523402 11.3184 0.503851 11.1286C0.484479 10.9406 0.538729 10.7524 0.655081 10.6036L8.85495 0.762782C8.85499 0.762739 8.85502 0.762696 8.85506 0.762653C8.97913 0.613931 9.15716 0.52054 9.35005 0.503005C9.5429 0.485473 9.73482 0.5452 9.88365 0.669061ZM5.40417 11.0764C5.40417 10.8826 5.48116 10.6967 5.61821 10.5597C5.75525 10.4226 5.94112 10.3456 6.13494 10.3456H25.8272C26.021 10.3456 26.2069 10.4226 26.344 10.5597C26.481 10.6967 26.558 10.8826 26.558 11.0764C26.558 11.2702 26.481 11.4561 26.344 11.5931C26.2069 11.7302 26.021 11.8072 25.8272 11.8072H6.13494C5.94112 11.8072 5.75525 11.7302 5.61821 11.5931C5.48116 11.4561 5.40417 11.2702 5.40417 11.0764Z" fill="#1C8EFF" stroke="#1C8EFF"/>
</svg>
