<svg width="50" height="48" viewBox="0 0 50 48" fill="none" xmlns="http://www.w3.org/2000/svg">
<path d="M42.4583 17.1402L39.8958 20.8402C41.1316 23.2064 41.7366 25.8299 41.6566 28.4757C41.5766 31.1215 40.8141 33.7069 39.4375 36.0002H10.5625C8.77322 33.0205 8.03182 29.5665 8.44816 26.1504C8.86451 22.7343 10.4164 19.5379 12.8739 17.0351C15.3313 14.5323 18.5634 12.8563 22.0911 12.2556C25.6187 11.6549 29.2541 12.1615 32.4583 13.7002L36.3125 11.2402C32.3885 8.82467 27.734 7.74225 23.0935 8.16612C18.453 8.58998 14.0946 10.4956 10.7156 13.5783C7.3365 16.6609 5.13196 20.7424 4.45457 25.1699C3.77719 29.5974 4.6661 34.115 6.97912 38.0002C7.34268 38.6048 7.86472 39.1075 8.49335 39.4583C9.12198 39.8092 9.83531 39.996 10.5625 40.0002H39.4166C40.1508 40.003 40.8728 39.8195 41.5093 39.4683C42.1459 39.1171 42.6745 38.6107 43.0416 38.0002C44.9612 34.8081 45.9245 31.1688 45.8252 27.4842C45.7259 23.7995 44.568 20.2129 42.4791 17.1202L42.4583 17.1402Z" fill="#1C8EFF"/>
<path d="M22.0624 30.8198C22.4493 31.1917 22.9089 31.4868 23.4147 31.6881C23.9205 31.8894 24.4627 31.993 25.0103 31.993C25.5578 31.993 26.1 31.8894 26.6059 31.6881C27.1117 31.4868 27.5712 31.1917 27.9582 30.8198L39.7499 13.8398L22.0624 25.1598C21.675 25.5313 21.3676 25.9725 21.1579 26.4581C20.9483 26.9437 20.8403 27.4642 20.8403 27.9898C20.8403 28.5155 20.9483 29.036 21.1579 29.5216C21.3676 30.0072 21.675 30.4483 22.0624 30.8198Z" fill="#1C8EFF"/>
</svg>
