<svg width="89" height="32" viewBox="0 0 89 32" fill="none" xmlns="http://www.w3.org/2000/svg">
<path fill-rule="evenodd" clip-rule="evenodd" d="M61.1133 16.0002C61.1133 18.6736 59.9881 21.2375 57.9852 23.1279C55.9823 25.0182 53.2658 26.0802 50.4333 26.0802C47.6008 26.0802 44.8843 25.0182 42.8814 23.1279C40.8785 21.2375 39.7533 18.6736 39.7533 16.0002C39.7533 13.3269 40.8785 10.763 42.8814 8.8726C44.8843 6.98223 47.6008 5.92024 50.4333 5.92024C53.2658 5.92024 55.9823 6.98223 57.9852 8.8726C59.9881 10.763 61.1133 13.3269 61.1133 16.0002ZM66.483 18.8002C65.7886 22.3392 63.8032 25.537 60.8715 27.8386C57.9397 30.1402 54.2467 31.4004 50.4333 31.4004C46.62 31.4004 42.9269 30.1402 39.9952 27.8386C37.0635 25.537 35.0781 22.3392 34.3837 18.8002H2.96667C2.17986 18.8002 1.42527 18.5052 0.868917 17.9801C0.312559 17.455 0 16.7428 0 16.0002C0 15.2576 0.312559 14.5454 0.868917 14.0203C1.42527 13.4952 2.17986 13.2002 2.96667 13.2002H34.3837C35.0781 9.66127 37.0635 6.46349 39.9952 4.16187C42.9269 1.86026 46.62 0.600098 50.4333 0.600098C54.2467 0.600098 57.9397 1.86026 60.8715 4.16187C63.8032 6.46349 65.7886 9.66127 66.483 13.2002H86.0333C86.8201 13.2002 87.5747 13.4952 88.1311 14.0203C88.6874 14.5454 89 15.2576 89 16.0002C89 16.7428 88.6874 17.455 88.1311 17.9801C87.5747 18.5052 86.8201 18.8002 86.0333 18.8002H66.483Z" fill="#1C8EFF"/>
</svg>
