<svg width="45" height="29" viewBox="0 0 45 29" fill="none" xmlns="http://www.w3.org/2000/svg">
<path d="M35.4586 1.6945C35.2655 1.43303 34.9866 1.21568 34.6499 1.06448C34.3133 0.91328 33.931 0.833593 33.5418 0.833496H2.6251C2.23838 0.833593 1.85848 0.912247 1.52339 1.06159C1.18831 1.21094 0.909792 1.42573 0.715714 1.68449C0.521636 1.94325 0.4188 2.2369 0.417493 2.53606C0.416186 2.83522 0.516455 3.12939 0.708268 3.38916L8.91664 14.5002L0.708268 25.6112C0.516455 25.8709 0.416186 26.1651 0.417493 26.4643C0.4188 26.7634 0.521636 27.0571 0.715714 27.3158C0.909792 27.5746 1.18831 27.7894 1.52339 27.9387C1.85848 28.0881 2.23838 28.1667 2.6251 28.1668H33.5418C33.931 28.1667 34.3133 28.087 34.6499 27.9358C34.9866 27.7846 35.2655 27.5673 35.4586 27.3058L44.2919 15.3475C44.4829 15.0895 44.5834 14.7974 44.5834 14.5002C44.5834 14.2029 44.4829 13.9108 44.2919 13.6528L35.4586 1.6945ZM32.2609 24.7502H6.43227L13.3775 15.3475C13.5685 15.0895 13.6689 14.7974 13.6689 14.5002C13.6689 14.2029 13.5685 13.9108 13.3775 13.6528L6.43227 4.25016H32.2609L39.8333 14.5002L32.2609 24.7502Z" fill="#1C8EFF"/>
</svg>
