<svg width="45" height="44" viewBox="0 0 45 44" fill="none" xmlns="http://www.w3.org/2000/svg">
<path fill-rule="evenodd" clip-rule="evenodd" d="M14.0625 31.625C14.0625 31.2603 14.2107 30.9106 14.4744 30.6527C14.7381 30.3949 15.0958 30.25 15.4688 30.25H40.7812C41.1542 30.25 41.5119 30.3949 41.7756 30.6527C42.0393 30.9106 42.1875 31.2603 42.1875 31.625C42.1875 31.9897 42.0393 32.3394 41.7756 32.5973C41.5119 32.8551 41.1542 33 40.7812 33H15.4688C15.0958 33 14.7381 32.8551 14.4744 32.5973C14.2107 32.3394 14.0625 31.9897 14.0625 31.625ZM14.0625 20.625C14.0625 20.2603 14.2107 19.9106 14.4744 19.6527C14.7381 19.3949 15.0958 19.25 15.4688 19.25H40.7812C41.1542 19.25 41.5119 19.3949 41.7756 19.6527C42.0393 19.9106 42.1875 20.2603 42.1875 20.625C42.1875 20.9897 42.0393 21.3394 41.7756 21.5973C41.5119 21.8551 41.1542 22 40.7812 22H15.4688C15.0958 22 14.7381 21.8551 14.4744 21.5973C14.2107 21.3394 14.0625 20.9897 14.0625 20.625ZM14.0625 9.625C14.0625 9.26033 14.2107 8.91059 14.4744 8.65273C14.7381 8.39487 15.0958 8.25 15.4688 8.25H40.7812C41.1542 8.25 41.5119 8.39487 41.7756 8.65273C42.0393 8.91059 42.1875 9.26033 42.1875 9.625C42.1875 9.98967 42.0393 10.3394 41.7756 10.5973C41.5119 10.8551 41.1542 11 40.7812 11H15.4688C15.0958 11 14.7381 10.8551 14.4744 10.5973C14.2107 10.3394 14.0625 9.98967 14.0625 9.625Z" fill="#1C8EFF"/>
<path d="M6.30546 6.03337C6.35331 5.88173 6.44959 5.74907 6.58017 5.65484C6.71076 5.56061 6.86879 5.50977 7.03109 5.50977C7.19339 5.50977 7.35141 5.56061 7.482 5.65484C7.61259 5.74907 7.70886 5.88173 7.75671 6.03337L8.21234 7.49087C8.31077 7.80712 8.60609 8.02437 8.93796 8.02437H10.4876C11.2161 8.02437 11.5283 8.94012 10.9489 9.38012L9.63265 10.3784C9.50827 10.4735 9.41638 10.6033 9.36917 10.7506C9.32195 10.898 9.32164 11.0559 9.36827 11.2034L9.85484 12.7681C10.0742 13.4721 9.25577 14.0386 8.66515 13.5931L7.49234 12.7021C7.36049 12.6018 7.19817 12.5473 7.03109 12.5473C6.864 12.5473 6.70169 12.6018 6.56984 12.7021L5.39702 13.5904C4.8064 14.0386 3.99077 13.4721 4.20734 12.7681L4.6939 11.2006C4.73991 11.0535 4.73928 10.8962 4.69209 10.7494C4.6449 10.6026 4.55336 10.4733 4.42952 10.3784L3.11327 9.38012C2.5339 8.94012 2.84609 8.02437 3.57452 8.02437H5.1214C5.28535 8.02388 5.44477 7.97171 5.576 7.8756C5.70722 7.77949 5.80325 7.64457 5.84984 7.49087L6.30546 6.03337ZM6.30546 17.0334C6.35331 16.8817 6.44959 16.7491 6.58017 16.6548C6.71076 16.5606 6.86879 16.5098 7.03109 16.5098C7.19339 16.5098 7.35141 16.5606 7.482 16.6548C7.61259 16.7491 7.70886 16.8817 7.75671 17.0334L8.21234 18.4909C8.31077 18.8071 8.60609 19.0244 8.93796 19.0244H10.4876C11.2161 19.0244 11.5283 19.9401 10.9489 20.3801L9.63265 21.3784C9.50827 21.4735 9.41638 21.6033 9.36917 21.7506C9.32195 21.898 9.32164 22.0559 9.36827 22.2034L9.85484 23.7681C10.0742 24.4694 9.25577 25.0386 8.66515 24.5931L7.49234 23.7021C7.36049 23.6018 7.19817 23.5473 7.03109 23.5473C6.864 23.5473 6.70169 23.6018 6.56984 23.7021L5.39702 24.5904C4.8064 25.0386 3.99077 24.4721 4.20734 23.7681L4.6939 22.2006C4.73991 22.0535 4.73928 21.8962 4.69209 21.7494C4.6449 21.6026 4.55336 21.4733 4.42952 21.3784L3.11327 20.3801C2.5339 19.9401 2.84609 19.0244 3.57452 19.0244H5.1214C5.28535 19.0239 5.44477 18.9717 5.576 18.8756C5.70722 18.7795 5.80325 18.6446 5.84984 18.4909L6.30546 17.0334ZM6.30546 28.0334C6.35331 27.8817 6.44959 27.7491 6.58017 27.6548C6.71076 27.5606 6.86879 27.5098 7.03109 27.5098C7.19339 27.5098 7.35141 27.5606 7.482 27.6548C7.61259 27.7491 7.70886 27.8817 7.75671 28.0334L8.21234 29.4909C8.31077 29.8071 8.60609 30.0244 8.93796 30.0244H10.4876C11.2161 30.0244 11.5283 30.9401 10.9489 31.3801L9.63265 32.3784C9.50827 32.4735 9.41638 32.6033 9.36917 32.7506C9.32195 32.898 9.32164 33.0559 9.36827 33.2034L9.85484 34.7681C10.0742 35.4694 9.25577 36.0386 8.66515 35.5931L7.49234 34.7021C7.36049 34.6018 7.19817 34.5473 7.03109 34.5473C6.864 34.5473 6.70169 34.6018 6.56984 34.7021L5.39702 35.5904C4.8064 36.0386 3.99077 35.4721 4.20734 34.7681L4.6939 33.2006C4.73991 33.0535 4.73928 32.8962 4.69209 32.7494C4.6449 32.6026 4.55336 32.4733 4.42952 32.3784L3.11327 31.3801C2.5339 30.9401 2.84609 30.0244 3.57452 30.0244H5.1214C5.28535 30.0239 5.44477 29.9717 5.576 29.8756C5.70722 29.7795 5.80325 29.6446 5.84984 29.4909L6.30546 28.0334Z" fill="#1C8EFF"/>
</svg>
