<svg width="10" height="16" viewBox="0 0 10 16" fill="none" xmlns="http://www.w3.org/2000/svg">
<path d="M8.50611 15.105C8.40642 15.1051 8.30768 15.0864 8.21558 15.0501C8.12348 15.0137 8.03983 14.9604 7.96939 14.8931L0.736847 7.99676L7.96939 1.1064C8.03976 1.03924 8.12332 0.985969 8.2153 0.949616C8.30729 0.913262 8.40589 0.894531 8.50546 0.894531C8.60504 0.894531 8.70364 0.913262 8.79562 0.949616C8.88761 0.985969 8.9712 1.03924 9.04157 1.1064C9.18347 1.24185 9.26316 1.42546 9.26316 1.61689C9.26316 1.80832 9.18347 1.99193 9.04157 2.12737L2.87996 8.00158L9.04157 13.877C9.18347 14.0124 9.26316 14.196 9.26316 14.3875C9.26316 14.5789 9.18347 14.7625 9.04157 14.898C8.89878 15.0317 8.70628 15.1062 8.50611 15.105Z" fill="white"/>
</svg>
