<svg width="23" height="21" viewBox="0 0 23 21" fill="none" xmlns="http://www.w3.org/2000/svg">
<path d="M8.625 3.28125V8.53125H10.7812V9.84375H3.59375V12.4688H1.4375V17.7188H7.1875V12.4688H5.03125V11.1562H10.7812V12.4688H8.625V17.7188H14.375V12.4688H12.2188V11.1562H17.9688V12.4688H15.8125V17.7188H21.5625V12.4688H19.4062V9.84375H12.2188V8.53125H14.375V3.28125H8.625ZM10.0625 4.59375H12.9375V7.21875H10.0625V4.59375ZM2.875 13.7812H5.75V16.4062H2.875V13.7812ZM10.0625 13.7812H12.9375V16.4062H10.0625V13.7812ZM17.25 13.7812H20.125V16.4062H17.25V13.7812Z" fill="white"/>
</svg>
