<svg width="18" height="16" viewBox="0 0 18 16" fill="none" xmlns="http://www.w3.org/2000/svg">
<path d="M8.71566 0C6.55003 0 4.77816 1.77188 4.77816 3.9375C4.77816 4.599 4.93959 5.21391 5.22966 5.76253C4.032 5.4705 2.57316 5.25 0.840656 5.25H0L2.29688 14.4375H2.80941C5.04459 14.4375 6.41878 14.7577 7.21875 15.0531C7.61906 15.2014 7.87238 15.3477 8.01872 15.4422C8.16441 15.5374 8.18278 15.5452 8.18278 15.5452L8.36653 15.75H9.06413L9.24919 15.5446C9.24919 15.5446 9.26691 15.5374 9.41325 15.4422C9.66448 15.2833 9.93255 15.1528 10.2126 15.0531C11.0125 14.7577 12.3867 14.4375 14.6219 14.4375H15.1344L17.4313 5.25H16.5907C14.8654 5.25 13.4092 5.45738 12.2227 5.74219C12.51 5.18431 12.6578 4.56503 12.6532 3.9375C12.6532 1.77188 10.8813 0 8.71566 0ZM8.71566 1.3125C10.1745 1.3125 11.3407 2.47866 11.3407 3.9375C11.3407 5.39634 10.1745 6.5625 8.71566 6.5625C7.25681 6.5625 6.09066 5.39634 6.09066 3.9375C6.09066 2.47866 7.25681 1.3125 8.71566 1.3125ZM1.70166 6.64453C3.74259 6.74428 5.40881 7.098 6.50081 7.50619C7.38019 7.83431 7.81331 8.08763 8.05941 8.24381V13.986C7.94128 13.9322 7.83366 13.8764 7.68994 13.8219C6.80334 13.4938 5.34713 13.2175 3.32194 13.1657L1.70166 6.64453ZM15.729 6.64453L14.1094 13.1663C12.0842 13.2175 10.628 13.4945 9.74072 13.8226C9.59766 13.8764 9.49003 13.9322 9.37191 13.9867V8.24447C9.618 8.085 10.0485 7.82906 10.9102 7.50619C11.9943 7.098 13.6631 6.74494 15.729 6.64453Z" fill="white"/>
</svg>
