<svg width="41" height="38" viewBox="0 0 41 38" fill="none" xmlns="http://www.w3.org/2000/svg">
<path d="M38.1006 19.0191C38.0825 23.4887 36.4874 27.8098 33.594 31.2269C30.7007 34.6441 26.6932 36.9399 22.2723 37.713C12.1098 39.5074 2.2524 32.6994 0.344204 22.5665C-1.61136 12.1883 4.94509 2.44229 15.4562 0.376096C20.3982 -0.59379 25.1033 0.313825 29.384 3.08008C30.1211 3.55559 30.5209 4.19337 30.3561 5.05193C30.195 5.85577 29.6549 6.45204 28.8136 6.48035C28.2592 6.477 27.7169 6.31879 27.2484 6.0237C24.6921 4.43679 21.8971 3.57069 18.9107 3.66126C12.8886 3.84995 8.24984 6.5728 5.41503 11.894C0.476851 21.1607 6.06879 32.2484 16.5079 34.0995C25.1469 35.6317 33.532 29.3199 34.2672 20.6664C34.3904 19.2153 34.2767 17.7303 34.1365 16.2736C34.0228 15.115 34.5515 14.1753 35.6695 13.9677C36.6662 13.779 37.6155 14.513 37.7633 15.6509C37.9111 16.7887 37.9926 17.8944 38.1006 19.0191Z" fill="#F3F3F3"/>
<path d="M18.2854 20.7324C18.6644 20.355 18.8766 20.1664 19.1173 19.9305C24.9119 14.1439 30.7104 8.36292 36.5127 2.58763C37.246 1.85738 38.0286 1.35734 39.1163 1.74983C40.5584 2.27062 41.0852 3.87074 40.2078 5.12179C40.0378 5.3485 39.8475 5.55944 39.6393 5.75202C33.1966 12.1777 26.7488 18.6015 20.2959 25.0233C18.8728 26.4404 17.7453 26.4461 16.3166 25.0233C14.2385 22.959 12.1641 20.8909 10.0936 18.8191C9.46638 18.1888 9.09501 17.4567 9.36788 16.5246C9.47164 16.1105 9.6955 15.736 10.0116 15.4477C10.3277 15.1595 10.7219 14.9703 11.1453 14.9037C12.0113 14.7263 12.6707 15.1094 13.2506 15.6886C14.9048 17.3454 16.3867 18.8304 18.2854 20.7324Z" fill="#F3F3F3"/>
</svg>
