<svg width="18" height="16" viewBox="0 0 18 16" fill="none" xmlns="http://www.w3.org/2000/svg">
<path d="M17.8971 0.832874C17.8207 0.663666 17.7061 0.521948 17.5656 0.423013C17.425 0.324078 17.2639 0.271684 17.0997 0.271484H0.898159C0.734203 0.272272 0.573533 0.325054 0.433428 0.424152C0.293323 0.52325 0.179085 0.664916 0.102997 0.833914C0.0269091 1.00291 -0.0081486 1.19285 0.00159387 1.3833C0.0113363 1.57375 0.0655103 1.7575 0.15829 1.9148L8.25904 15.5306C8.34162 15.6701 8.45211 15.7842 8.58099 15.8631C8.70988 15.9419 8.8533 15.9831 8.99891 15.9831C9.14452 15.9831 9.28794 15.9419 9.41683 15.8631C9.54572 15.7842 9.65621 15.6701 9.73878 15.5306L17.8395 1.9148C17.9332 1.75783 17.9881 1.57396 17.9983 1.38321C18.0084 1.19245 17.9735 1.00211 17.8971 0.832874ZM8.99891 13.0944L2.61552 2.36622H15.3823L8.99891 13.0944Z" fill="#00BBB0"/>
</svg>
