<svg width="18" height="17" viewBox="0 0 18 17" fill="none" xmlns="http://www.w3.org/2000/svg">
<path d="M17.8971 0.582442C17.8207 0.406889 17.7061 0.259856 17.5656 0.157211C17.425 0.0545662 17.2639 0.000206777 17.0997 0H0.898159C0.734203 0.000817602 0.573533 0.0555783 0.433428 0.158393C0.293323 0.261207 0.179085 0.408185 0.102997 0.583521C0.0269091 0.758857 -0.0081486 0.955917 0.00159387 1.15351C0.0113363 1.3511 0.0655103 1.54175 0.15829 1.70495L8.25904 15.8313C8.34162 15.9761 8.45211 16.0945 8.58099 16.1763C8.70988 16.2581 8.8533 16.3008 8.99891 16.3008C9.14452 16.3008 9.28794 16.2581 9.41683 16.1763C9.54572 16.0945 9.65621 15.9761 9.73878 15.8313L17.8395 1.70495C17.9332 1.54208 17.9881 1.35132 17.9983 1.15341C18.0084 0.955506 17.9735 0.758024 17.8971 0.582442ZM8.99891 13.3038L2.61552 2.17329H15.3823L8.99891 13.3038Z" fill="white"/>
</svg>
