<svg width="69" height="67" viewBox="0 0 69 67" fill="none" xmlns="http://www.w3.org/2000/svg">
<path d="M58.5924 23.9244L55.0561 29.089C56.7615 32.3917 57.5964 36.0537 57.486 39.7468C57.3756 43.4399 56.3234 47.0487 54.4236 50.2498H14.5761C12.107 46.0905 11.0839 41.2694 11.6584 36.501C12.233 31.7327 14.3746 27.2711 17.7659 23.7776C21.1571 20.2841 25.6175 17.9448 30.4856 17.1063C35.3538 16.2678 40.3706 16.9749 44.7924 19.1227L50.1111 15.689C44.696 12.3172 38.2728 10.8064 31.8689 11.398C25.4651 11.9896 19.4505 14.6496 14.7874 18.9525C10.1243 23.2553 7.08205 28.9524 6.14726 35.1324C5.21247 41.3125 6.43917 47.6184 9.63114 53.0415C10.1329 53.8853 10.8533 54.587 11.7208 55.0768C12.5883 55.5665 13.5727 55.8273 14.5761 55.8331H54.3949C55.4081 55.8371 56.4044 55.5809 57.2828 55.0907C58.1613 54.6004 58.8908 53.8935 59.3974 53.0415C62.0463 48.5858 63.3757 43.5059 63.2387 38.3628C63.1018 33.2196 61.5037 28.2133 58.6211 23.8965L58.5924 23.9244Z" fill="#EEF1F4"/>
<path d="M30.4462 43.0196C30.9802 43.5387 31.6143 43.9505 32.3124 44.2315C33.0104 44.5125 33.7587 44.6571 34.5143 44.6571C35.2699 44.6571 36.0182 44.5125 36.7162 44.2315C37.4142 43.9505 38.0484 43.5387 38.5824 43.0196L54.8549 19.3184L30.4462 35.1192C29.9116 35.6377 29.4874 36.2535 29.1981 36.9313C28.9087 37.6091 28.7598 38.3357 28.7598 39.0694C28.7598 39.8031 28.9087 40.5297 29.1981 41.2075C29.4874 41.8853 29.9116 42.5011 30.4462 43.0196Z" fill="#EEF1F4"/>
</svg>
