<svg width="89" height="84" viewBox="0 0 89 84" fill="none" xmlns="http://www.w3.org/2000/svg">
<g clip-path="url(#clip0_3394_21985)">
<path fill-rule="evenodd" clip-rule="evenodd" d="M61.1133 41.9997C61.1133 44.6731 59.9881 47.237 57.9852 49.1274C55.9823 51.0177 53.2658 52.0797 50.4333 52.0797C47.6008 52.0797 44.8843 51.0177 42.8814 49.1274C40.8785 47.237 39.7533 44.6731 39.7533 41.9997C39.7533 39.3264 40.8785 36.7625 42.8814 34.8721C44.8843 32.9817 47.6008 31.9197 50.4333 31.9197C53.2658 31.9197 55.9823 32.9817 57.9852 34.8721C59.9881 36.7625 61.1133 39.3264 61.1133 41.9997ZM66.483 44.7997C65.7886 48.3387 63.8032 51.5365 60.8715 53.8381C57.9397 56.1397 54.2467 57.3999 50.4333 57.3999C46.62 57.3999 42.9269 56.1397 39.9952 53.8381C37.0635 51.5365 35.0781 48.3387 34.3837 44.7997H2.96667C2.17986 44.7997 1.42527 44.5047 0.868917 43.9796C0.312559 43.4545 0 42.7424 0 41.9997C0 41.2571 0.312559 40.545 0.868917 40.0198C1.42527 39.4947 2.17986 39.1997 2.96667 39.1997H34.3837C35.0781 35.6608 37.0635 32.463 39.9952 30.1614C42.9269 27.8598 46.62 26.5996 50.4333 26.5996C54.2467 26.5996 57.9397 27.8598 60.8715 30.1614C63.8032 32.463 65.7886 35.6608 66.483 39.1997H86.0333C86.8201 39.1997 87.5747 39.4947 88.1311 40.0198C88.6874 40.545 89 41.2571 89 41.9997C89 42.7424 88.6874 43.4545 88.1311 43.9796C87.5747 44.5047 86.8201 44.7997 86.0333 44.7997H66.483Z" fill="#F7F7F7"/>
</g>
<defs>
<clipPath id="clip0_3394_21985">
<rect width="89" height="84" fill="white"/>
</clipPath>
</defs>
</svg>
